# xmcd
#
# Track frame offsets:
#	150
#	19494
#	38290
#	53962
#	72685
#	92062
#	114950
#	134932
#	147172
#	171275
#	199402
#	224472
#
# Disc length: 3276
#
# Revision: 4
# Processed by: cddbd v1.5.1PL0 Copyright (c) Steve Scherf et al.
# Submitted via: FreeRIP 2.35 
# Normalized: r2:TSWAP
#
DISCID=be0cca0c
DTITLE=Soul Music Collection - 14. - La Rivoluzione Dell' Hip Hop
DYEAR=1900
DGENRE=
TTITLE0=M.C. Hammer - U Can't Touch This
TTITLE1=Warren G - Regulate
TTITLE2=Arrested Development - People Everyday
TTITLE3=Salt 'N' Pepa - Shoop
TTITLE4=Mellow Man Ace - Mentirosa
TTITLE5=Queen Latifah - Rough ...
TTITLE6=Dream Warriors - My Definition Of A Boombastic Jazz Style (Next Definition)
TTITLE7=Gang-Starr - Just To Get A Rep
TTITLE8=Public Enemy - Don't Believe The Hype
TTITLE9=Disposable Heroes Of HipHoprisy - Language Of Violence
TTITLE10=Eric B. and Rakim - Follow the Leader
TTITLE11=Public Enemy - Fight The Power
EXTD=by David K. (Opatija City) - Croatia
EXTT0=
EXTT1=
EXTT2=
EXTT3=
EXTT4=
EXTT5=
EXTT6=
EXTT7=
EXTT8=
EXTT9=
EXTT10=
EXTT11=
PLAYORDER=
